4d54 6864 0000 0006 0001 0001 0400 4d54
726b 0000 041d 00ff 0300 00e0 0040 00ff
5103 070a e288 0090 405a 0090 3979 0090
4279 0090 3e79 8600 9045 5a82 0080 4000
0080 3900 0080 4200 0080 3e00 8400 8045
0000 9044 5a84 0090 4279 0090 3979 0090
3e79 8200 8044 0082 0090 455a 8400 8042
0000 8039 0000 803e 0084 0080 4500 0090
405a 8400 9042 7900 9039 7900 903e 7982
0090 3d5a 8200 8040 0084 0080 4200 0080
3900 0080 3e00 8400 803d 0000 903e 5a84
0090 3979 0090 4279 0090 3e79 0090 2f79
8400 9040 5a82 0080 3e00 8200 8039 0000
8042 0000 803e 0000 802f 0082 0090 425a
8200 8040 0084 0080 4200 0090 4079 0090
3979 0090 3d79 8200 9040 5a00 9045 5a86
0080 4000 0080 3900 0080 3d00 8200 8040
0000 9042 5a82 0080 4500 8400 9039 7900
9040 7900 903d 7982 0080 4200 0090 405a
8600 8039 0000 8040 0000 803d 0000 9045
5a82 0080 4000 8400 8045 0082 0090 405a
0090 455a 0090 397a 0090 407a 0090 3d7a
8800 8040 0000 8045 0000 9042 5a82 5580
3900 0080 4000 0080 3d00 852b 8042 0000
9039 7a00 9040 7a00 903d 7a82 0090 3d5a
8600 8039 0000 8040 0000 803d 0084 0080
3d00 0090 3b5a 8400 903d 5a00 903b 7a00
9040 7a00 9038 7a82 0090 3d5a 8400 803b
0082 0080 3d00 0080 3b00 0080 4000 0080
3800 0080 3d00 0090 3b5a 8600 9040 5a82
0080 3b00 0090 407a 0090 3b7a 0090 387a
8400 8040 0082 0090 3f5a 8200 8040 0000
803b 0000 8038 0086 0080 3f00 0090 3d5a
8200 9047 5a00 9040 7a00 903b 7a00 9038
7a00 9028 7a86 0080 3d00 8200 8047 0000
8040 0000 803b 0000 8038 0000 8028 0082
0090 445a 8400 9049 5a82 0090 3b7a 0090
407a 0090 387a 0090 2c7a 8200 8049 0000
904e 5a82 0080 4400 8200 804e 0000 9053
5a82 0080 3b00 0080 4000 0080 3800 0080
2c00 8200 8053 0084 0090 3d5a 8200 9045
5a00 9040 7a00 9039 7a00 903d 7a84 0090
495a 8200 803d 0082 0080 4500 0080 4000
0080 3900 0080 3d00 0080 4900 8600 9044
5a82 0090 397a 0090 3d7a 0090 407a 8600
903e 5a82 0080 4400 0080 3900 0080 3d00
0080 4000 8600 803e 0000 903d 5a82 0090
475a 0090 407a 0090 3d7a 0090 397a 8600
803d 0000 9049 5a82 0080 4700 8255 8040
0000 803d 0000 8039 0081 2b80 4900 0090
4c5a 8400 9039 7a00 903d 7a00 9040 7a00
9031 7a82 0080 4c00 8200 9045 5a84 0080
3900 0080 3d00 0080 4000 0080 3100 0090
495a 8400 8045 0000 8049 0084 0090 3d5a
0090 3e5a 0090 3e7b 0090 397b 0090 427b
8400 9042 5a84 0080 3d00 0080 3e00 0080
3e00 0080 3900 0080 4200 0080 4200 8400
9047 5a84 0090 427b 0090 397b 0090 3e7b
8400 8047 0000 9042 5a84 0080 4200 0080
3900 0080 3e00 8200 9044 5a82 0080 4200
8400 8044 0000 903d 5a00 9039 7b00 9042
7b00 903e 7b88 0080 3d00 0080 3900 0080
4200 0080 3e00 8200 9045 5a86 0090 397b
0090 427b 0090 3e7b 0090 2f7b 8400 8045
0000 9044 5a84 0080 3900 0080 4200 0080
3e00 0080 2f00 8600 8044 0000 9040 5a84
0090 425a 8400 8042 0082 0080 4000 8800
ff2f 00
